<?xml version="1.0" encoding="utf-8"?>
<!-- Generator: Adobe Illustrator 17.1.0, SVG Export Plug-In . SVG Version: 6.00 Build 0)  -->
<!DOCTYPE svg PUBLIC "-//W3C//DTD SVG 1.1//EN" "http://www.w3.org/Graphics/SVG/1.1/DTD/svg11.dtd">
<svg version="1.1" id="Layer_1" xmlns="http://www.w3.org/2000/svg" xmlns:xlink="http://www.w3.org/1999/xlink" x="0px" y="0px"
	 viewBox="0 0 708.4 350.2" enable-background="new 0 0 708.4 350.2" xml:space="preserve">
<path d="M694.8,74.9c-7.5,0-13.6,6.1-13.6,13.6c0,7.5,6.1,13.6,13.6,13.6c7.5,0,13.6-6.1,13.6-13.6C708.4,81,702.3,74.9,694.8,74.9z
	 M694.8,100.5c-6.6,0-12-5.3-12-12c0-6.6,5.3-11.9,12-11.9c6.6,0,11.9,5.3,11.9,11.9C706.7,95.1,701.4,100.5,694.8,100.5z"/>
<path d="M701.8,84.9c0-1.3-0.6-2.6-1.7-3.3c-1.1-0.7-2.4-0.7-3.7-0.7h-6.6v15.2h1.8v-7h3.4l4.3,7h2.2l-4.6-7
	C699.7,89,701.8,87.9,701.8,84.9z M694.5,87.6h-2.8v-5.4h4.3c1.9,0,3.9,0.3,3.9,2.6C699.9,88,696.6,87.6,694.5,87.6z"/>
<path d="M239.9,312.6l-88.5-43.2c-1.9-1-3-3.6-2.9-5.3l0.2-23.9c0-1.7,0.4-3.4,2.6-5c9.5-6,38.8-22.3,69.1-66.5
	c40.3-58.9,0-108.3-63-94.9c-56,12-113,42.3-137.7,58.8c-22,14.7-19,32.4-19.6,48.3c1.2,6.7,3.7,6.1,9.2-0.6
	c41-37.9,103.4-66.7,115.1-71.6c11.6-4.9,39.2-21.4,71.6-14.1c31.2,7.1,23.6,49.4,14.1,67.3c-10.4,19.6-40.1,48-53.6,55.1
	c-5.1,2.7-7,0-7-4.3l2.1-92.1c0-6.1-2.8-8.9-8.9-6.7l-9.8,4.9c-6.7,4-6.4,5.5-7,10.4l-1.5,106.2c0,2.3-1.1,4.1-2.4,4.7l-31.9,18
	c-7.3,3.7-5.5,9.2,0,11l25.7,12.2c6.1,2.4,8,4.3,8,10.4l-0.9,51.4c23-4.6,24.5-15.6,25.1-23v-15.6c0.6-3.7,2.8-4.9,5.8-4.3
	l74.7,36.1c6.7,3.1,10.4,1.8,15.3-6.7C248.5,321.1,249.1,316.9,239.9,312.6z"/>
<path d="M370.4,182.9c-10.4,6-15.2,17.2-11.1,24.3c4.1,7.1,16.4,8.3,26.8,2.3c10.4-6,14.9-16.9,10.8-24
	C392.8,178.4,380.8,176.9,370.4,182.9z"/>
<path d="M332.1,190.5c-2.8,3.4-8.3,13.9-11.3,20.3c-3.1,6.4-9.5,21-15.9,21c-6.8,0-7.6-16.8-7.6-23c0-6.1-3.7-7-5.5-6.7
	c-1.8,0.3-7,2.1-8.6,8.6c-1.5,6.4-9.8,34.3-19,34.3c-5.8,0-10.1-16.8-10.4-22s-2.8-9.5-8-9.5c-3.7,0-8.3,1.8-10.1,4
	s-2.1,5.5-11.9,3.4c-8.9-0.3-17.4,4.3-27.8,21.7c-6.3,10.5-11.4,30.1-1.8,37.9c8.9,7.3,24.5-5.8,29.1-11.3
	c4.6-5.5,8.6-9.5,10.4-12.5c1.8-3.1,3.7-2.8,4.6,0.3c0.9,3.1,6.1,15,12.9,14.7c6.7-0.3,15.3-5.5,25.4-23.3c1.8-3.7,4.6-3.4,5.2-0.3
	s4.6,13.2,11.3,13.2c6.4,0,13.6-10.2,17.1-16.2c2.4-4.1,6.1-2.1,6.1,1.8c0,4-1.8,97.9-1.8,97.9c0,4.3,1.7,5.5,4.7,5.5h13.3
	c2.4,0,4.6-2.1,4.6-5.5l2.8-152.2C339.8,188.8,335.6,186.2,332.1,190.5z M228.1,250.5c-2.8,4.6-10.1,16.8-16.5,14.7
	c-3.4-1.8,1.1-14.1,3.4-18.4c3.4-6.4,13.2-16.7,17.7-14.1C236.9,235.2,230.8,245.9,228.1,250.5z"/>
<path d="M694.3,156.6c-1.2,1.1-3.2,2.9-7.7,0.9c-7.6-3.1-8.3-17.4-12.2-30.6c-3.6-11.8-12.2-11.1-15.3-5.7l-9.3,15
	c-1.7,3.1-5.4,10.1-9,10.1c-4.3,0-2.4-6.1-2.1-12.2c0.2-4.1-2.4-9.3-6.7-9.3c-4.9,0-10.1,7.5-14.1,16.1c-2.8,6-9.9,28.9-19,28.9
	c-5.8,0-6.4-16.8-6.7-22c-0.3-5.2-2.1-11.6-7.3-11.6c-3.5,0-5.8,1.8-7.6,4s-2.1,4-8.6,3.1c-8.9-0.3-23.6,8-34,25.4
	c-6.3,10.5-13.8,32.5-4.3,40.4c8.9,7.3,24.8-9.8,29.4-15.3c4.6-5.5,8.6-9.5,10.4-12.5c1.8-3.1,3.7-2.8,4.6,0.3
	c0.9,3.1,6.1,15,12.9,14.7c6.7-0.3,12.2-1.8,22.3-19.6c1.8-3.7,5.2-4.1,5.8-1.1c0.6,3.1,1.2,11.2,7.7,11.2c11,0,23.5-26.8,26.6-33
	c2.8-5.5,7.2-4,8.7,0.2c2.2,5.9,4.1,24.9,16.1,24.9c11.9,0,20-12.7,22.5-16.7C700,158,698.5,152.9,694.3,156.6z M564.6,175
	c-2.8,4.6-8.9,14.7-15.3,12.5c-3.4-1.8,0.8-10.7,3.1-15c3.4-6.4,13.2-16.8,17.7-14.2C574.4,160.7,567.3,170.4,564.6,175z"/>
<path d="M505.5,158.9c0,0-26-19-33.4-27.5c-4.9-5.8-1.5-10.1,1.5-12.5c18.4-12.2,47.1-31.2,58.4-60.6C543,29.9,526,5.3,513.7,1.3
	c-16.8-5.5-52.3,5.5-70.1,38.6c-11.5,21.4-16.8,28.5-18.4,86.6c-0.3,11-0.6,23.6-0.6,37.3c0,13.8-1.5,51.1-3.1,58.1
	c-5.8,16.5,11.6,6.7,19.6,0.3c8-6.4,7.3-16.1,7.3-20.2c0-5.2,0.3-97,3.1-117.5c1.7-12.8,3.7-36.4,17.1-56.9
	c13.5-20.5,27.2-12.2,30.9-8.9s8.9,11.9,6.1,29.4c-4.3,27.1-35.5,56.6-43.5,65.8c-8,9.2-6.1,17.1-1.5,23.6
	c3.3,4.6,11.3,13.5,19.6,21.7c8.3,8.3,7.3,15.6,6.1,21.1c-4.3,16.5-49,61.2-49,61.2c-9.5,10.1,0.3,26.6,3.7,32.1
	c3.4,5.5,7.7,3.7,10.4-0.9c11-20.5,58.4-70.1,58.4-70.1C523.8,185.2,518,168.4,505.5,158.9z"/>
</svg>
